<?xml version="1.0" encoding="utf-8"?>
<!-- Generator: Adobe Illustrator 16.0.0, SVG Export Plug-In . SVG Version: 6.00 Build 0)  -->
<!DOCTYPE svg PUBLIC "-//W3C//DTD SVG 1.1//EN" "http://www.w3.org/Graphics/SVG/1.1/DTD/svg11.dtd">
<svg version="1.1" id="Layer_1" xmlns="http://www.w3.org/2000/svg" xmlns:xlink="http://www.w3.org/1999/xlink" x="0px" y="0px"
	 width="595.276px" height="143.604px" viewBox="0 0 595.276 143.604" enable-background="new 0 0 595.276 143.604"
	 xml:space="preserve">
<g>
	<defs>
		<rect id="SVGID_1_" width="595.276" height="143.604"/>
	</defs>
	<clipPath id="SVGID_2_">
		<use xlink:href="#SVGID_1_"  overflow="visible"/>
	</clipPath>
	<g clip-path="url(#SVGID_2_)">
		<defs>
			<rect id="SVGID_3_" y="0.604" width="595" height="143"/>
		</defs>
		<clipPath id="SVGID_4_">
			<use xlink:href="#SVGID_3_"  overflow="visible"/>
		</clipPath>
		<path clip-path="url(#SVGID_4_)" fill="#29256A" d="M61.802,62.337c-1.53,0-1.53,0.18-1.53,2.61v18.989
			c0,6.48,0.18,7.559,3.42,7.83l3.24,0.27c0.63,0.45,0.45,1.98-0.18,2.25c-4.051-0.18-6.66-0.27-9.81-0.27
			c-3.24,0-5.94,0.09-8.64,0.27c-0.63-0.27-0.809-1.8-0.179-2.25l2.069-0.27c3.33-0.45,3.42-1.35,3.42-7.83V64.947
			c0-2.43,0-2.61-1.8-2.61h-3.15c-0.539-0.36-0.63-1.17-0.27-1.71l3.87-1.89c0.72-0.36,1.35-0.9,1.35-1.8
			c0-5.219,0.63-10.799,2.79-15.84c2.25-5.129,7.29-11.429,16.2-11.429c4.769,0,8.819,2.16,8.819,5.4c0,1.8-1.71,3.24-3.42,3.24
			c-0.99,0-1.53-0.36-2.16-1.08c-1.709-1.98-4.23-3.96-7.2-3.96c-2.789,0-5.039,1.71-6.389,4.95c-1.62,4.14-1.98,10.71-1.98,15.209
			v2.61c0,2.43,0,2.52,1.53,2.52h10.26c0.989,0.9,0.359,3.42-0.631,3.78H61.802z"/>
		<path clip-path="url(#SVGID_4_)" fill="#29256A" d="M84.871,70.977c-2.34,0-2.43,0.18-2.43,2.43c0,9.09,5.31,16.829,14.939,16.829
			c2.97,0,5.491-0.899,8.28-4.41c0.901-0.27,1.531,0.271,1.621,1.08c-2.97,6.12-9.45,8.37-14.13,8.37
			c-5.85,0-10.44-2.52-13.05-5.939c-2.7-3.511-3.779-7.74-3.779-11.699c0-11.07,7.289-20.34,18.089-20.34
			c7.74,0,12.78,5.31,12.78,10.71c0,1.26-0.181,1.979-0.361,2.34c-0.269,0.54-1.53,0.63-5.309,0.63H84.871z M90.451,68.277
			c6.66,0,8.64-0.36,9.36-0.9c0.27-0.18,0.539-0.54,0.539-1.71c0-2.52-1.709-5.67-6.929-5.67c-5.31,0-9.899,4.86-9.99,7.83
			c0,0.18,0,0.45,0.63,0.45H90.451z"/>
		<path clip-path="url(#SVGID_4_)" fill="#29256A" d="M122.431,70.977c-2.34,0-2.43,0.18-2.43,2.43
			c0,9.09,5.31,16.829,14.939,16.829c2.97,0,5.491-0.899,8.28-4.41c0.901-0.27,1.531,0.271,1.621,1.08
			c-2.97,6.12-9.45,8.37-14.13,8.37c-5.85,0-10.44-2.52-13.05-5.939c-2.7-3.511-3.779-7.74-3.779-11.699
			c0-11.07,7.289-20.34,18.089-20.34c7.74,0,12.78,5.31,12.78,10.71c0,1.26-0.181,1.979-0.361,2.34
			c-0.269,0.54-1.53,0.63-5.309,0.63H122.431z M128.011,68.277c6.66,0,8.64-0.36,9.36-0.9c0.27-0.18,0.539-0.54,0.539-1.71
			c0-2.52-1.709-5.67-6.929-5.67c-5.31,0-9.899,4.86-9.99,7.83c0,0.18,0,0.45,0.63,0.45H128.011z"/>
		<path clip-path="url(#SVGID_4_)" fill="#29256A" d="M185.729,80.875c0,7.11,0.09,10.44,2.61,10.44c0.99,0,2.52-0.45,3.87-0.9
			c0.63,0.181,0.72,2.431-0.09,2.881c-3.78,0.539-9.36,1.89-11.88,2.88c-0.54,0-0.99-0.271-0.99-0.721v-1.529
			c0-1.351,0-2.431-0.18-2.79h-0.36c-3.96,2.699-7.019,4.14-11.339,4.14c-9.99,0-16.649-7.83-16.649-17.28
			c0-12.599,9.539-20.699,21.778-20.699c3.06,0,5.04,0.45,6.03,0.81c0.45,0,0.54-0.539,0.54-1.259v-13.59
			c0-5.31-0.09-5.85-2.79-7.47l-0.9-0.539c-0.45-0.271-0.45-1.53,0-1.801c2.25-0.72,6.48-2.07,9.72-3.78c0.36,0,0.72,0.18,0.9,0.541
			c-0.09,2.699-0.27,7.199-0.27,11.159V80.875z M179.069,67.377c0-1.8-0.36-2.61-0.99-3.51c-1.35-1.889-4.05-3.78-7.56-3.78
			c-8.19,0-12.419,7.11-12.419,14.939c0,8.19,4.59,15.93,13.41,15.93c2.429,0,5.489-1.08,6.929-2.52c0.54-0.539,0.63-1.89,0.63-3.33
			V67.377z"/>
		<path clip-path="url(#SVGID_4_)" fill="#1E84B2" d="M270.298,75.926c0,11.25-7.74,19.35-18.989,19.35
			c-10.35,0-18.449-7.29-18.449-18.539c0-11.34,8.549-19.44,19.169-19.44C262.108,57.297,270.298,64.857,270.298,75.926
			 M250.949,59.997c-5.94,0-10.35,5.67-10.35,15.57c0,8.189,3.69,17.009,11.61,17.009c7.919,0,10.349-8.279,10.349-15.21
			C262.558,69.717,259.499,59.997,250.949,59.997"/>
		<path clip-path="url(#SVGID_4_)" fill="#1E84B2" d="M284.758,80.786c0,6.211,1.53,10.351,8.369,10.351
			c2.431,0,5.311-0.99,7.291-2.7c1.169-1.08,1.799-2.43,1.799-5.22v-14.76c0-5.849-0.63-6.029-3.33-7.109l-1.169-0.45
			c-0.631-0.36-0.631-1.62,0.09-1.98c3.601-0.09,8.551-0.72,10.529-1.62c0.45,0.09,0.721,0.27,0.811,0.63
			c-0.181,1.71-0.271,4.5-0.271,7.83v15.119c0,7.109,0.271,9.81,2.789,9.81c1.082,0,2.25-0.18,3.51-0.45
			c0.541,0.45,0.632,2.25-0.089,2.61c-3.51,0.72-8.729,1.619-11.789,3.33c-0.451,0-0.9-0.271-1.081-0.63v-3.69
			c0-0.81-0.27-1.26-0.809-1.26c-2.701,1.71-7.11,4.68-12.42,4.68c-7.92,0-10.89-3.96-10.89-11.25V68.997c0-5.67,0-6.48-2.7-7.65
			l-1.079-0.45c-0.541-0.45-0.451-1.71,0.179-1.98c4.141-0.09,7.65-0.9,9.63-1.62c0.54,0.09,0.81,0.27,0.9,0.63
			c-0.18,1.53-0.27,3.42-0.27,7.83V80.786z"/>
		<path clip-path="url(#SVGID_4_)" fill="#1E84B2" d="M324.598,68.187c0-3.51,0-3.96-2.43-5.58l-0.81-0.54
			c-0.361-0.36-0.361-1.35,0.091-1.62c2.069-0.719,6.839-3.06,9.089-4.409c0.45,0.09,0.719,0.269,0.719,0.629v5.22
			c0,0.45,0.091,0.72,0.271,0.81c3.149-2.61,6.568-5.4,9.899-5.4c2.25,0,4.049,1.44,4.049,3.6c0,2.97-2.429,4.14-3.868,4.14
			c-0.901,0-1.352-0.27-1.981-0.63c-1.35-0.9-2.699-1.44-3.959-1.44c-1.439,0-2.521,0.81-3.24,1.8
			c-0.899,1.26-1.171,3.87-1.171,6.93v12.239c0,6.479,0.181,7.56,3.602,7.83l3.238,0.27c0.632,0.45,0.451,1.98-0.179,2.25
			c-4.23-0.18-6.841-0.27-9.99-0.27c-3.24,0-5.939,0.09-8.279,0.27c-0.63-0.27-0.811-1.8-0.181-2.25l1.71-0.27
			c3.329-0.54,3.42-1.351,3.42-7.83V68.187z"/>
		<path clip-path="url(#SVGID_4_)" fill="#29256A" d="M371.815,58.917c0.811,1.98,1.44,4.86,1.44,7.29
			c-0.36,0.63-1.71,0.809-2.161,0.269c-1.529-3.959-4.229-6.569-7.919-6.569c-3.509,0-5.759,2.25-5.759,5.49
			c0,3.69,3.779,5.669,6.93,7.469c4.77,2.7,9.179,5.76,9.179,12.149c0,6.839-6.299,10.26-12.96,10.26c-4.229,0-7.38-0.9-9.63-2.7
			c-0.719-1.71-1.26-6.119-1.079-9.089c0.449-0.54,1.62-0.632,2.069-0.091c1.531,4.95,4.411,9.271,9.541,9.271
			c3.239,0,6.029-1.89,6.029-5.76c0-4.141-3.601-6.391-6.931-8.28c-5.219-2.97-8.908-6.12-8.908-11.069
			c0-6.57,5.398-10.26,12.238-10.26C367.676,57.297,371.006,58.197,371.815,58.917"/>
		<path clip-path="url(#SVGID_4_)" fill="#29256A" d="M416.514,75.926c0,11.25-7.738,19.35-18.988,19.35
			c-10.35,0-18.449-7.29-18.449-18.539c0-11.34,8.55-19.44,19.17-19.44C408.324,57.297,416.514,64.857,416.514,75.926
			 M397.165,59.997c-5.94,0-10.349,5.67-10.349,15.57c0,8.189,3.689,17.009,11.608,17.009c7.92,0,10.351-8.279,10.351-15.21
			C408.775,69.717,405.715,59.997,397.165,59.997"/>
		<path clip-path="url(#SVGID_4_)" fill="#29256A" d="M452.096,58.828c0.719,0.63,1.349,2.07,1.349,3.6
			c0,1.62-0.899,3.329-1.98,3.329c-0.449,0-0.899-0.18-1.26-0.629c-1.979-2.431-5.309-4.77-8.999-4.77
			c-6.3,0-12.42,4.95-12.42,14.49c0,7.02,4.86,15.389,14.49,15.389c5.219,0,7.919-2.34,9.989-5.399c0.721-0.18,1.53,0.45,1.619,1.26
			c-3.06,6.66-9.81,9.18-15.028,9.18c-4.771,0-9.181-1.53-12.33-4.59s-5.219-7.47-5.219-13.319c0-9.719,6.839-20.069,21.778-20.069
			C446.155,57.297,449.665,57.748,452.096,58.828"/>
		<path clip-path="url(#SVGID_4_)" fill="#29256A" d="M464.905,68.187c0-3.51,0-3.96-2.43-5.58l-0.811-0.54
			c-0.36-0.36-0.36-1.35,0.091-1.62c2.069-0.719,7.199-3.06,9.27-4.409c0.45,0,0.81,0.18,0.899,0.539
			c-0.181,3.151-0.36,7.47-0.36,11.16v16.199c0,6.479,0.18,7.38,3.421,7.83l1.889,0.27c0.63,0.45,0.45,1.98-0.18,2.25
			c-2.7-0.18-5.311-0.27-8.459-0.27c-3.241,0-5.94,0.09-8.46,0.27c-0.63-0.27-0.811-1.8-0.18-2.25l1.89-0.27
			c3.329-0.45,3.42-1.351,3.42-7.83V68.187z"/>
		<path clip-path="url(#SVGID_4_)" fill="#29256A" d="M499.885,75.387c1.349-0.45,1.529-1.26,1.529-2.611l0.091-4.139
			c0.089-3.33-0.991-7.83-6.57-7.83c-2.521,0-5.581,1.26-5.76,4.05c-0.091,1.44-0.181,2.52-0.901,3.06
			c-1.349,1.08-3.779,1.71-5.13,1.71c-0.81,0-1.259-0.45-1.259-1.26c0-4.68,10.17-11.07,16.74-11.07c6.479,0,9.628,3.78,9.358,10.53
			l-0.541,15.659c-0.179,4.141,0.632,7.83,4.142,7.83c0.899,0,1.71-0.27,2.25-0.54c0.449-0.27,0.899-0.63,1.169-0.63
			c0.36,0,0.63,0.54,0.63,1.17c0,0.45-3.149,3.96-7.559,3.96c-2.16,0-4.321-0.81-5.851-2.79c-0.36-0.54-0.899-1.26-1.44-1.26
			c-0.63,0-1.709,0.81-3.51,1.8c-1.979,1.08-3.959,2.25-6.479,2.25c-2.61,0-4.771-0.72-6.301-2.07
			c-1.71-1.529-2.791-3.779-2.791-6.3c0-3.51,1.712-5.579,7.472-7.648L499.885,75.387z M494.305,91.226
			c1.799,0,4.589-1.35,5.489-2.25c1.079-1.08,1.079-2.34,1.17-4.23l0.18-5.31c0-0.989-0.36-1.169-0.901-1.169
			c-0.539,0-2.068,0.359-3.688,0.9c-5.311,1.799-7.92,3.148-7.92,6.658C488.635,87.356,489.714,91.226,494.305,91.226"/>
		<path clip-path="url(#SVGID_4_)" fill="#29256A" d="M531.231,83.936c0,6.48,0.181,7.38,3.421,7.83l2.159,0.271
			c0.63,0.449,0.449,1.979-0.181,2.25c-2.969-0.181-5.579-0.271-8.729-0.271c-3.24,0-5.94,0.09-8.64,0.271
			c-0.63-0.271-0.81-1.801-0.18-2.25l2.069-0.271c3.329-0.45,3.419-1.35,3.419-7.83V43.258c0-5.31-0.09-5.85-2.789-7.47l-0.899-0.54
			c-0.451-0.27-0.451-1.53,0-1.8c2.25-0.72,6.479-2.07,9.719-3.78c0.36,0,0.72,0.18,0.9,0.54c-0.09,2.7-0.271,7.2-0.271,11.16
			V83.936z"/>
		<path clip-path="url(#SVGID_4_)" fill="#1E84B2" d="M245.605,30.129l-31.38,54.352c-0.655-1.46-1.745-4.487-2.156-5.584
			l-2.88-8.279c-0.54-1.53-2.61-7.38-2.61-8.461c0-0.63,0.72-0.9,1.98-1.169l2.25-0.45c0.63-0.45,0.54-1.981-0.18-2.25
			c-2.88,0.179-5.4,0.269-7.83,0.269c-2.97,0-5.67-0.09-8.55-0.269c-0.72,0.269-0.81,1.8-0.27,2.25l2.25,0.45
			c3.15,0.63,3.78,2.789,5.31,7.019l7.02,19.258c0.796,2.268,1.211,3.488,1.399,4.606l-13.737,23.794h3.768l49.385-85.536H245.605z"
			/>
	</g>
</g>
</svg>
